<?xml version="1.0" encoding="UTF-8" standalone="no"?>
<svg
   xmlns:dc="http://purl.org/dc/elements/1.1/"
   xmlns:cc="http://creativecommons.org/ns#"
   xmlns:rdf="http://www.w3.org/1999/02/22-rdf-syntax-ns#"
   xmlns:svg="http://www.w3.org/2000/svg"
   xmlns="http://www.w3.org/2000/svg"
   xmlns:sodipodi="http://sodipodi.sourceforge.net/DTD/sodipodi-0.dtd"
   xmlns:inkscape="http://www.inkscape.org/namespaces/inkscape"
   version="1.1"
   id="Capa_1"
   x="0px"
   y="0px"
   viewBox="0 0 700.00001 700.00001"
   xml:space="preserve"
   sodipodi:docname="newells-old-boys-logo.svg"
   width="700"
   height="700"
   inkscape:export-filename="C:\Users\alex\sites\newells-old-boys-logo-0.png"
   inkscape:export-xdpi="561.73712"
   inkscape:export-ydpi="561.73712"
   inkscape:version="0.92.1 r15371"><metadata
     id="metadata105"><rdf:RDF><cc:Work
         rdf:about=""><dc:format>image/svg+xml</dc:format><dc:type
           rdf:resource="http://purl.org/dc/dcmitype/StillImage" /><dc:title></dc:title></cc:Work></rdf:RDF></metadata><defs
     id="defs103" /><sodipodi:namedview
     pagecolor="#ffffff"
     bordercolor="#666666"
     borderopacity="1"
     objecttolerance="10"
     gridtolerance="10"
     guidetolerance="10"
     inkscape:pageopacity="0"
     inkscape:pageshadow="2"
     inkscape:window-width="1600"
     inkscape:window-height="838"
     id="namedview101"
     showgrid="false"
     inkscape:zoom="0.42051507"
     inkscape:cx="20.113277"
     inkscape:cy="124.58987"
     inkscape:window-x="-8"
     inkscape:window-y="-8"
     inkscape:window-maximized="1"
     inkscape:current-layer="g98" /><style
     type="text/css"
     id="style2">
	.st0{fill:#FFFFFF;}
	.st1{fill:#BF0811;}
</style><g
     id="g98"
     transform="translate(0,600.79)"><g
       id="g20"
       transform="matrix(8.6040642,0,0,8.6040642,-76.924375,-507.83642)"
       inkscape:export-filename="C:\Users\alex\sites\newells-old-boys-logo-4.png"
       inkscape:export-xdpi="95.929855"
       inkscape:export-ydpi="95.929855"><path
         class="st0"
         d="m 72.88,21.04 c -0.03,4.19 -0.55,8.11 -1.54,11.64 -0.98,3.48 -2.54,6.97 -4.48,10.11 -1.82,2.93 -4.19,5.81 -7.03,8.55 -2.98,2.88 -6.12,5.17 -9.33,6.81 L 50.04,58.39 50,58.4 c -0.12,0.06 -0.25,0.09 -0.39,0.09 -0.14,0 -0.28,-0.04 -0.39,-0.1 L 49.2,58.38 48.74,58.14 C 45.53,56.5 42.39,54.21 39.41,51.33 36.56,48.58 34.2,45.7 32.38,42.78 30.43,39.65 28.88,36.15 27.9,32.67 26.9,29.14 26.38,25.23 26.36,21.03 26.3,16.14 27.18,11.16 28,6.87 l 0.32,-1.69 0.01,-0.07 c 0.07,-0.3 0.33,-0.52 0.65,-0.52 0.1,0 0.2,0.02 0.28,0.07 l 0.04,0.02 1.51,0.78 c 2.09,1.09 4.35,1.64 6.71,1.64 4.06,0 7.85,-1.65 10.67,-4.63 l 0.93,-0.99 0.03,-0.03 c 0.12,-0.12 0.28,-0.19 0.45,-0.19 0.18,0 0.34,0.07 0.45,0.19 l 0.03,0.04 0.93,0.98 c 2.82,2.99 6.61,4.63 10.67,4.63 2.35,0 4.61,-0.55 6.71,-1.64 L 69.9,4.68 69.95,4.66 c 0.09,-0.04 0.18,-0.07 0.28,-0.07 0.31,0 0.58,0.22 0.65,0.52 l 0.01,0.07 0.32,1.69 c 0.82,4.29 1.7,9.27 1.67,14.17"
         id="path4"
         inkscape:connector-curvature="0"
         style="fill:#ffffff" /><path
         class="st1"
         d="m 49.61,3.93 c 3.05,3.16 7.32,5.13 12.06,5.13 2.73,0 5.3,-0.66 7.58,-1.81 0.87,4.45 1.66,9.02 1.63,13.46 -0.02,3.68 -0.46,7.38 -1.46,10.84 -0.95,3.29 -2.43,6.52 -4.25,9.37 -1.86,2.93 -4.19,5.61 -6.71,7.99 -2.62,2.48 -5.63,4.72 -8.84,6.33 v 0 c -3.21,-1.6 -6.22,-3.85 -8.84,-6.33 -2.52,-2.38 -4.85,-5.05 -6.71,-7.99 -1.81,-2.85 -3.3,-6.08 -4.25,-9.37 -1,-3.46 -1.44,-7.16 -1.46,-10.84 -0.03,-4.45 0.75,-9.01 1.63,-13.46 2.28,1.16 4.85,1.81 7.58,1.81 4.71,-0.01 8.99,-1.97 12.04,-5.13"
         id="path6"
         inkscape:connector-curvature="0"
         style="fill:#bf0811" /><path
         class="st1"
         d="m 49.61,3.93 c 3.05,3.16 7.32,5.13 12.06,5.13 2.73,0 5.3,-0.66 7.58,-1.81 0.87,4.45 1.66,9.02 1.63,13.46 -0.02,3.68 -0.46,7.38 -1.46,10.84 -0.95,3.29 -2.43,6.52 -4.25,9.37 -1.86,2.93 -4.19,5.61 -6.71,7.99 -2.62,2.48 -5.63,4.72 -8.84,6.33 v 0 c -3.21,-1.6 -6.22,-3.85 -8.84,-6.33 -2.52,-2.38 -4.85,-5.05 -6.71,-7.99 -1.81,-2.85 -3.3,-6.08 -4.25,-9.37 -1,-3.46 -1.44,-7.16 -1.46,-10.84 -0.03,-4.45 0.75,-9.01 1.63,-13.46 2.28,1.16 4.85,1.81 7.58,1.81 4.71,-0.01 8.99,-1.97 12.04,-5.13"
         id="path8"
         inkscape:connector-curvature="0"
         style="fill:#bf0811" /><path
         class="st1"
         d="m 49.61,3.93 c -3.05,3.16 -7.32,5.13 -12.06,5.13 -2.73,0 -5.3,-0.66 -7.58,-1.81 -0.87,4.45 -1.65,9.02 -1.63,13.46 0.02,3.68 0.46,7.38 1.46,10.84 0.95,3.29 2.43,6.52 4.25,9.37 1.86,2.93 4.19,5.61 6.71,7.99 2.62,2.48 5.63,4.72 8.84,6.33 v 0 -51.31 z"
         id="path10"
         inkscape:connector-curvature="0"
         style="fill:#bf0811" /><path
         d="m 49.61,3.93 c 3.05,3.16 7.32,5.13 12.06,5.13 2.73,0 5.3,-0.66 7.58,-1.81 0.87,4.45 1.66,9.02 1.63,13.46 -0.02,3.68 -0.46,7.38 -1.46,10.84 -0.95,3.29 -2.43,6.52 -4.25,9.37 -1.86,2.93 -4.19,5.61 -6.71,7.99 -2.62,2.48 -5.63,4.72 -8.84,6.33 v 0 -51.31 z"
         id="path12"
         inkscape:connector-curvature="0" /><polygon
         class="st0"
         points="40.4,19.32 42.92,19.32 42.92,29.58 40.72,29.58 37.43,24.42 37.43,29.58 34.91,29.58 34.91,19.32 37.11,19.32 40.4,24.48 "
         id="polygon14"
         style="fill:#ffffff" /><path
         class="st0"
         d="m 52.6,28.51 c -0.75,0.75 -1.62,1.15 -2.87,1.15 -1.25,0 -2.12,-0.4 -2.87,-1.15 -1.08,-1.08 -1.24,-2.52 -1.24,-4.06 0,-1.54 0.16,-2.98 1.24,-4.06 0.75,-0.75 1.61,-1.15 2.87,-1.15 1.25,0 2.12,0.4 2.87,1.15 1.08,1.08 1.24,2.52 1.24,4.06 0,1.54 -0.16,2.98 -1.24,4.06 m -1.86,-6.58 c -0.19,-0.24 -0.55,-0.45 -1.01,-0.45 -0.46,0 -0.82,0.2 -1.01,0.45 -0.23,0.3 -0.48,0.65 -0.48,2.52 0,1.87 0.24,2.2 0.48,2.51 0.19,0.24 0.55,0.46 1.01,0.46 0.46,0 0.82,-0.22 1.01,-0.46 0.23,-0.3 0.48,-0.64 0.48,-2.51 -0.01,-1.88 -0.25,-2.22 -0.48,-2.52"
         id="path16"
         inkscape:connector-curvature="0"
         style="fill:#ffffff" /><path
         class="st0"
         d="M 61.1,29.58 H 56.53 V 19.32 h 4.15 c 2.13,0 3.27,1.2 3.27,2.97 0,1.17 -0.81,1.82 -1.12,2.03 0.42,0.26 1.47,0.79 1.47,2.23 0,1.96 -1.37,3.03 -3.2,3.03 m -0.58,-8 h -1.47 v 1.67 h 1.47 c 0.69,0 0.91,-0.43 0.91,-0.84 0,-0.4 -0.22,-0.83 -0.91,-0.83 m 0.34,3.94 h -1.8 v 1.8 h 1.8 c 0.69,0 0.92,-0.48 0.92,-0.91 0,-0.43 -0.23,-0.89 -0.92,-0.89"
         id="path18"
         inkscape:connector-curvature="0"
         style="fill:#ffffff" /></g></g></svg>