<?xml version="1.0" encoding="UTF-8" standalone="no"?>
<svg
   xmlns:dc="http://purl.org/dc/elements/1.1/"
   xmlns:cc="http://creativecommons.org/ns#"
   xmlns:rdf="http://www.w3.org/1999/02/22-rdf-syntax-ns#"
   xmlns:svg="http://www.w3.org/2000/svg"
   xmlns="http://www.w3.org/2000/svg"
   xmlns:sodipodi="http://sodipodi.sourceforge.net/DTD/sodipodi-0.dtd"
   xmlns:inkscape="http://www.inkscape.org/namespaces/inkscape"
   width="1530.9672"
   height="1870.0295"
   viewBox="0 0 118.04124 144.18377"
   version="1.1"
   id="svg22"
   sodipodi:docname="san-lorenzo-logo.svg"
   inkscape:version="0.92.2 (5c3e80d, 2017-08-06)">
  <metadata
     id="metadata28">
    <rdf:RDF>
      <cc:Work
         rdf:about="">
        <dc:format>image/svg+xml</dc:format>
        <dc:type
           rdf:resource="http://purl.org/dc/dcmitype/StillImage" />
        <dc:title></dc:title>
      </cc:Work>
    </rdf:RDF>
  </metadata>
  <defs
     id="defs26" />
  <sodipodi:namedview
     pagecolor="#ffffff"
     bordercolor="#666666"
     borderopacity="1"
     objecttolerance="10"
     gridtolerance="10"
     guidetolerance="10"
     inkscape:pageopacity="0"
     inkscape:pageshadow="2"
     inkscape:window-width="1600"
     inkscape:window-height="837"
     id="namedview24"
     showgrid="false"
     fit-margin-top="0"
     fit-margin-left="0"
     fit-margin-right="0"
     fit-margin-bottom="0"
     inkscape:zoom="0.13350176"
     inkscape:cx="1586.9937"
     inkscape:cy="695.49286"
     inkscape:window-x="-8"
     inkscape:window-y="-8"
     inkscape:window-maximized="1"
     inkscape:current-layer="svg22" />
  <path
     d="M 57.823983,113.12326 C 29.446763,101.73088 9.106453,71.842033 9.106453,36.918217 c 0,-8.512229 1.20952,-16.72532 3.44887,-24.444783 4.71692,2.49591 10.92005,4.009889 17.74508,4.009889 13.67548,0 25.2671,-6.076023 27.52299,-13.9604266 2.255311,7.8844036 13.848111,13.9604266 27.523601,13.9604266 6.82504,0 13.02874,-1.513979 17.744476,-4.009889 2.23995,7.71887 3.45005,15.931961 3.45005,24.444783 0,34.923816 -20.339706,64.812063 -48.717537,76.205043 z"
     id="path4"
     inkscape:connector-curvature="0"
     style="clip-rule:evenodd;fill:#133654;fill-opacity:1;fill-rule:evenodd;stroke:#000000;stroke-width:1.38784325;stroke-miterlimit:4;stroke-dasharray:none;stroke-opacity:1" />
  <path
     d="M 57.823983,110.12723 C 30.773333,98.280832 11.628963,69.785959 11.628963,36.652191 c 0,-7.252443 0.91868,-14.282026 2.63543,-20.963404 4.49701,1.811932 9.973,2.874856 15.9024,2.874856 12.87859,0 23.97422,-5.01133 27.6566,-11.8357716 3.682391,6.8250346 14.778601,11.8357716 27.657191,11.8357716 5.92883,0 11.40423,-1.062924 15.901236,-2.874856 a 84.172824,84.172824 0 0 1 2.63601,20.963404 c 9e-4,33.133175 -19.142606,61.628041 -46.193847,73.475039 z"
     id="path6"
     inkscape:connector-curvature="0"
     style="clip-rule:evenodd;fill:#e13035;fill-opacity:1;fill-rule:evenodd;stroke-width:0.59116769" />
  <path
     d="M 57.823983,107.38126 C 32.126523,95.138772 14.179253,67.931464 14.179253,36.463019 c 0,-6.120365 0.67926,-12.079335 1.96269,-17.798286 4.17127,1.32717 9.00584,2.08623 14.1762,2.08623 12.28387,0 22.99228,-4.278878 27.50525,-10.305825 4.512981,6.026947 15.220801,10.305825 27.505851,10.305825 5.17036,0 10.00611,-0.75906 14.17621,-2.08623 a 81.260137,81.260137 0 0 1 1.961496,17.798286 c 9e-4,31.468445 -17.946086,58.675753 -43.642967,70.918241 z"
     stroke-miterlimit="2.613"
     id="path8"
     inkscape:connector-curvature="0"
     style="clip-rule:evenodd;fill:#133654;fill-opacity:1;fill-rule:evenodd;stroke:#e13035;stroke-width:0.59116769;stroke-miterlimit:2.61299992" />
  <path
     d="m 62.769694,17.585846 c 2.80923,1.554773 6.16707,2.823416 9.89378,3.711352 v 72.973154 a 73.907782,73.907782 0 0 1 -9.89378,7.147208 z m 19.78935,5.07813 c 0.8696,0.04016 1.74927,0.06091 2.63601,0.06091 2.50538,0 4.93626,-0.162572 7.25658,-0.468789 v 45.541194 a 75.994605,75.994605 0 0 1 -9.89259,16.221046 z M 52.875913,101.41638 a 74.056167,74.056167 0 0 1 -9.89437,-7.147218 V 21.297791 c 3.72672,-0.887343 7.08455,-2.155403 9.89437,-3.71076 z M 33.087753,84.016547 A 76.076184,76.076184 0 0 1 23.193383,67.793129 V 22.255483 a 55.504735,55.504735 0 0 0 7.25954,0.468798 c 0.88616,0 1.76523,-0.02066 2.63483,-0.06091 z"
     id="path10"
     inkscape:connector-curvature="0"
     style="clip-rule:evenodd;fill:#e13035;fill-opacity:1;fill-rule:evenodd;stroke-width:0.59116769" />
  <path
     d="m 58.315253,30.575575 c 13.669561,0 24.818411,11.148836 24.818411,24.81781 0,13.66898 -11.14885,24.817223 -24.818411,24.817223 -13.66898,0 -24.81781,-11.14765 -24.81781,-24.817223 0,-13.669567 11.14883,-24.81781 24.81781,-24.81781 z"
     id="path12"
     inkscape:connector-curvature="0"
     style="clip-rule:evenodd;fill:#ffffff;fill-rule:evenodd;stroke-width:0.59116769" />
  <path
     d="m 63.267464,75.281449 v -3.028552 a 17.457182,17.457182 0 0 1 -4.952211,0.712356 c -9.67861,0 -17.57306,-7.893264 -17.57306,-17.571868 0,-9.679189 7.89445,-17.57364 17.57306,-17.57364 1.719111,0 3.380881,0.250061 4.952211,0.713541 v -3.029145 a 20.424844,20.424844 0 0 0 -4.952211,-0.60831 c -11.28835,0 -20.49579,9.208029 -20.49579,20.49697 0,11.288346 9.20744,20.496374 20.49579,20.496374 a 20.395286,20.395286 0 0 0 4.952211,-0.607726 z"
     id="path14"
     inkscape:connector-curvature="0"
     style="clip-rule:evenodd;fill:#133654;fill-opacity:1;fill-rule:evenodd;stroke-width:0.59116769" />
  <path
     d="m 60.420984,39.834449 c 0.98016,0.132416 1.93194,0.355284 2.84589,0.660917 v 27.312541 a 13.423053,13.423053 0 0 0 4.72815,-3.208858 v 3.141464 a 15.636977,15.636977 0 0 1 -7.57404,3.212407 z m -9.613561,29.340236 a 15.861029,15.861029 0 0 1 -2.25353,-1.499786 V 56.558575 h -3.55647 a 13.293587,13.293587 0 0 0 2.56153,6.757646 h -2.78972 a 15.589092,15.589092 0 0 1 -2.15481,-7.922836 c 0,-5.931185 3.31822,-11.111582 8.1924,-13.781886 V 69.174685 Z M 48.553893,54.22761 v -7.9518 a 13.330241,13.330241 0 0 0 -3.55647,7.952384 h 3.55647 z M 59.107414,43.211783 v 6.093756 h -3.010821 v -2.056666 h -9e-4 c -0.008,-0.376575 -0.27607,-0.680438 -0.60358,-0.680438 -0.33223,0 -0.60299,0.313323 -0.60299,0.697578 0,0.02479 9e-4,0.04905 0.004,0.0733 v 3.671152 a 2.542021,2.542021 0 0 0 0.15252,0.495991 c 0.10642,0.257158 0.24474,0.49599 0.38958,0.688711 l 3.121371,3.682381 c 0.14188,0.190358 0.27607,0.426235 0.3813,0.678659 0.0958,0.231152 0.15252,0.443969 0.17085,0.618363 v 11.284798 c -0.15843,1.393387 -1.159871,2.485866 -2.385951,2.555029 a 15.290552,15.290552 0 0 1 -1.15984,-0.163749 c -1.82139,-0.587622 -3.25261,-2.219248 -3.52868,-4.041223 v -6.192478 h 2.93515 v 3.813619 a 1.2857898,1.2857898 0 0 0 -0.005,0.117646 c 0,0.552146 0.35647,1.002025 0.79393,1.002025 0.43687,0 0.79394,-0.450472 0.79394,-1.002025 0,-0.02542 -5.5e-4,-0.04968 -0.002,-0.07393 v -5.546931 a 2.5662589,2.5662589 0 0 0 -0.15252,-0.490664 3.3968496,3.3968496 0 0 0 -0.25066,-0.487124 l -3.63686,-4.290107 a 3.2549693,3.2549693 0 0 1 -0.30504,-0.56988 2.2789514,2.2789514 0 0 1 -0.17203,-0.633149 v -9.717018 c 0.12888,-1.05819 0.74428,-1.93726 1.57192,-2.322108 0.44929,-0.142468 0.90804,-0.26484 1.37328,-0.366523 2.1489,-0.212825 3.896981,1.148051 4.129311,3.160969 z m 10.66525,-4.799099 c 5.44761,3.690664 9.03956,9.929252 9.03956,16.980701 0,7.791005 -4.38765,14.590613 -10.81661,18.056629 v -3.403941 c 4.36696,-2.89672 7.37482,-7.691093 7.83179,-13.190723 h -3.05515 v 4.655444 a 15.764078,15.764078 0 0 1 -2.99959,4.598686 z m 6.05474,15.517567 a 17.46132,17.46132 0 0 0 -3.05515,-8.508087 v 8.508087 z"
     id="path16"
     inkscape:connector-curvature="0"
     style="clip-rule:evenodd;fill:#133654;fill-opacity:1;fill-rule:evenodd;stroke-width:0.59116769" />
  <path
     d="m 58.315253,32.501605 c 12.608421,0 22.891781,10.283359 22.891781,22.89178 0,12.608428 -10.28336,22.891193 -22.891781,22.891193 -12.60784,0 -22.89061,-10.283358 -22.89061,-22.891193 0,-12.608421 10.28277,-22.89178 22.89061,-22.89178"
     stroke-miterlimit="2.613"
     id="path18"
     inkscape:connector-curvature="0"
     style="fill:none;stroke:#133654;stroke-width:0.980156;stroke-miterlimit:2.61299992" />
  <path
     d="m 65.672334,54.399633 c 0.12355,0.212826 0.18562,0.534422 0.18562,0.964196 0,0.43865 -0.0591,0.756105 -0.17794,0.954144 -0.11764,0.197455 -0.308,0.296173 -0.57284,0.296173 h -0.36948 v -2.534924 h 0.36948 c 0.25243,6.2e-4 0.44042,0.107595 0.56516,0.320411 z m -0.33697,3.20177 c 0.42623,0 0.75078,-0.187403 0.97247,-0.563977 0.22287,-0.375982 0.33342,-0.924589 0.33342,-1.645811 0,-0.748415 -0.11765,-1.317711 -0.35352,-1.710249 -0.23587,-0.392538 -0.57757,-0.588798 -1.02626,-0.588798 h -1.28875 v 4.508242 h 1.36264 z m 1.62098,0 v -4.508835 h 2.01057 v 0.969514 h -1.25446 v 0.72063 h 1.15692 v 0.960055 h -1.15692 v 0.871379 h 1.29938 v 0.987257 z"
     id="path20"
     inkscape:connector-curvature="0"
     style="clip-rule:evenodd;fill:#133654;fill-opacity:1;fill-rule:evenodd;stroke-width:0.59116769" />
  <text
     xml:space="preserve"
     style="font-style:normal;font-weight:normal;font-size:10.44269753px;line-height:1.25;font-family:sans-serif;letter-spacing:0px;word-spacing:0px;fill:#000000;fill-opacity:1;stroke:none;stroke-width:0.24475072"
     x="-1.0248936"
     y="144.03589"
     id="text904"><tspan
       sodipodi:role="line"
       id="tspan902"
       x="-1.0248936"
       y="144.03589"
       style="stroke-width:0.24475072">LOGODOWNLOAD.ORG</tspan></text>
</svg>
